<?xml version="1.0" encoding="UTF-8"?>
<svg id="Vrstva_1" xmlns="http://www.w3.org/2000/svg" version="1.1" viewBox="0 0 214.54 147.95">
  <!-- Generator: Adobe Illustrator 30.1.0, SVG Export Plug-In . SVG Version: 2.1.1 Build 136)  -->
  <defs>
    <style>
      .st0 {
        fill: #cf63ce;
      }

      .st1 {
        fill: #8e1537;
      }
    </style>
  </defs>
  <path class="st1" d="M2.23,1.11h12.25v31.74h13.14V1.11h12.25v77.97h-12.25v-35.09h-13.14v35.09H2.23V1.11Z"/>
  <path class="st1" d="M48.13,60.59V19.6c0-12.48,6.57-19.6,18.6-19.6s18.6,7.13,18.6,19.6v40.99c0,12.48-6.57,19.6-18.6,19.6s-18.6-7.13-18.6-19.6ZM73.08,61.37V18.82c0-5.57-2.45-7.69-6.35-7.69s-6.35,2.12-6.35,7.69v42.55c0,5.57,2.45,7.69,6.35,7.69s6.35-2.12,6.35-7.69Z"/>
  <path class="st1" d="M93.57,1.11h12.25v66.83h20.16v11.14h-32.41V1.11Z"/>
  <path class="st1" d="M131.44,60.59V1.11h12.25v60.37c0,5.57,2.34,7.57,6.24,7.57s6.24-2,6.24-7.57V1.11h11.81v59.48c0,12.48-6.24,19.6-18.27,19.6s-18.27-7.13-18.27-19.6Z"/>
  <path class="st1" d="M176.67,1.11h18.49c12.7,0,18.16,5.9,18.16,17.93v3.12c0,8.02-2.45,13.03-7.91,15.26v.22c6.57,2.23,9.13,8.02,9.13,16.26v6.68c0,12.03-6.35,18.49-18.6,18.49h-19.27V1.11ZM193.71,32.86c4.57,0,7.35-2,7.35-8.24v-4.34c0-5.57-1.89-8.02-6.24-8.02h-5.9v20.61h4.79ZM195.94,67.94c4.12,0,6.35-1.89,6.35-7.69v-6.79c0-7.24-2.34-9.47-7.91-9.47h-5.46v23.95h7.02Z"/>
  <path class="st0" d="M0,107.54h9.28c6.49,0,9.28,3.02,9.28,9.16v2.45c0,4.1-1.31,6.72-4.1,7.86v.11c3.13.97,4.16,3.93,4.16,8.42v7c0,1.93.06,3.36.68,4.84h-6.38c-.34-1.02-.57-1.65-.57-4.9v-7.29c0-3.7-1.08-4.9-3.93-4.9h-2.16v17.08H0v-39.84ZM8.54,124.61c2.33,0,3.76-1.02,3.76-4.21v-3.07c0-2.85-.97-4.1-3.19-4.1h-2.85v11.38h2.28Z"/>
  <path class="st0" d="M22.94,107.54h17.08v5.69h-10.82v10.53h8.6v5.69h-8.6v12.24h10.82v5.69h-17.08v-39.84Z"/>
  <path class="st0" d="M42.63,137.93v-2.28h5.92v2.73c0,2.85,1.25,3.87,3.24,3.87s3.24-1.02,3.24-3.98c0-3.3-1.25-5.41-5.35-8.99-5.24-4.61-6.94-7.85-6.94-12.41,0-6.26,3.25-9.9,9.34-9.9s9.11,3.64,9.11,10.02v1.65h-5.92v-2.05c0-2.85-1.14-3.93-3.13-3.93s-3.13,1.08-3.13,3.81c0,2.9,1.31,5.01,5.41,8.6,5.24,4.61,6.89,7.8,6.89,12.75,0,6.49-3.3,10.13-9.45,10.13s-9.22-3.64-9.22-10.02Z"/>
  <path class="st0" d="M69.78,113.23h-6.55v-5.69h19.35v5.69h-6.55v34.15h-6.26v-34.15Z"/>
  <path class="st0" d="M87.82,107.54h8.48l6.49,39.84h-6.26l-1.14-7.91v.11h-7.12l-1.14,7.8h-5.81l6.49-39.84ZM94.65,134.17l-2.79-19.69h-.11l-2.73,19.69h5.64Z"/>
  <path class="st0" d="M105.46,137.93v-30.4h6.26v30.85c0,2.85,1.2,3.87,3.19,3.87s3.19-1.02,3.19-3.87v-30.85h6.03v30.4c0,6.38-3.19,10.02-9.34,10.02s-9.34-3.64-9.34-10.02Z"/>
  <path class="st0" d="M128.57,107.54h9.28c6.49,0,9.28,3.02,9.28,9.16v2.45c0,4.1-1.31,6.72-4.1,7.86v.11c3.13.97,4.16,3.93,4.16,8.42v7c0,1.93.06,3.36.68,4.84h-6.38c-.34-1.02-.57-1.65-.57-4.9v-7.29c0-3.7-1.08-4.9-3.93-4.9h-2.16v17.08h-6.26v-39.84ZM137.11,124.61c2.33,0,3.76-1.02,3.76-4.21v-3.07c0-2.85-.97-4.1-3.19-4.1h-2.85v11.38h2.28Z"/>
  <path class="st0" d="M156.34,107.54h8.48l6.49,39.84h-6.26l-1.14-7.91v.11h-7.12l-1.14,7.8h-5.81l6.49-39.84ZM163.17,134.17l-2.79-19.69h-.11l-2.73,19.69h5.64Z"/>
  <path class="st0" d="M173.81,138.16v-21.4c0-6.15,3.19-9.79,9.22-9.79s9.22,3.64,9.22,9.79v4.21h-5.92v-4.61c0-2.62-1.25-3.7-3.13-3.7s-3.13,1.08-3.13,3.7v22.26c0,2.62,1.25,3.64,3.13,3.64s3.13-1.02,3.13-3.64v-6.09h5.92v5.64c0,6.15-3.19,9.79-9.22,9.79s-9.22-3.64-9.22-9.79Z"/>
  <path class="st0" d="M196.01,107.54h17.08v5.69h-10.81v10.53h8.6v5.69h-8.6v12.24h10.81v5.69h-17.08v-39.84Z"/>
</svg>